<?xml version="1.0" encoding="utf-8"?>
<!-- Generator: Adobe Illustrator 19.2.1, SVG Export Plug-In . SVG Version: 6.00 Build 0)  -->
<svg version="1.1" id="layer" xmlns="http://www.w3.org/2000/svg" xmlns:xlink="http://www.w3.org/1999/xlink" x="0px" y="0px"
	 viewBox="0 0 652 652" style="enable-background:new 0 0 652 652;" xml:space="preserve">
<style type="text/css">
	.st0{fill:#015B9A;}
</style>
<g>
	<path class="st0" d="M240.6,246.9c-2.5-4.4-29.8-16.8-69-24.7c-16.1,17.1-16.1,24.1-16.5,26.9c-0.3,2.8,5.4,10.1,11.1,17.7
		c10.8,13.9,13.6,16.5,15.2,20.6c3.2,7.9-1.9,25.6-5.7,41.8c0,0-9.5-34.5-13.9-57c-0.3-2.2,0.3-3.5,0.3-3.2
		c-24.1-2.2-40.5-3.5-43.4,9.2c-11.1,0-16.1,3.2-17.4,5.1c-2.8,4.7,0.6,14.6,2.5,19.3c1.6-3.8,11.4-3.2,14.6-3.2
		c1.3,0,1.3,0.9,1.9,1.6v46.8H91.9l-24.4,65.5c11.4,5.4,23.4,9.8,31,9.8c7.6,0,26-9.5,28.5-9.8c2.5,0,21.2,9.8,28.5,9.8
		c7.3,0,19.3-3.8,31-9.8l-24.7-65.8c0,0-25,0-28.5,0c0-10.4,0-33.9,0-44.3c-0.6-2.8-1.9-3.8-2.8-4.1H145c-2.2-8.5-5.1-14.2-9.2-14.6
		c1.3-1.6,1.9-2.2,3.8-3.8h-11.1c1.3-5.7,15.5-3.8,21.8-3.2c6.3,31.7,18.4,73.8,19,74.7c0.6,0.6,10.8,4.4,12,4.7
		c6-12.7,14.9-49.7,15.2-58.9c7.3,2.5,4.4,12.3,2.8,22.2c-8.2,51-14.9,66.5-17.1,76c7.3-1.6,12-2.8,12.7-3.8
		c1.3-1.3,4.4-9.8,7.6-19.3c4.4-13.9,11.4-49.1,11.1-63c0-3.5-2.8-6.6-7.9-9.2c0,0,2.5-4.4,3.8-7c1.6-3.5,3.2-9.8,3.2-9.8
		c2.8,0.9,5.4,2.2,5.7,5.1c1.6,13.3,0.6,14.6-0.9,39.3c-0.6,7.9-3.2,23.4-6,39.9c-5.4,30.1-10.4,42.7-10.4,47.5
		c7.9-2.5,13.9-4.4,14.6-5.4c0.6-1.6,6.6-15.8,10.8-37.7c1.9-9.2,3.2-18.7,4.4-28.2c2.2-12.7,2.5-25.6,2.5-36.4
		c0-15.8,1.9-15.8-9.8-22.2c4.4-13,3.5-21.5,2.5-23.7c-1.9-4.7-4.4-4.7-14.9-3.8c3.8,3.5,2.5,10.4,1.6,14.6
		c-1.9-1.6-1.3-4.4-12.3-4.1c-1.6-18-5.1-19.9-5.4-20.6c-1.6-1.9-10.8-0.9-13.6,0c1.9,1.3,6.3,15.5,4.1,20.9
		c-1.3-1.6-16.8-19.3-15.8-22.5c0.6-1.9,1.6-4.1,7-10.4c18.7,3.2,50.3,15.2,51.9,18.4c1.9,4.1,3.8,8.9,5.1,15.8
		c1.6,10.4,4.7,35.1,3.2,72.8c-1.6,38.9-6.6,61.1-6.6,59.8c5.7-1.9,15.5-10.8,16.1-12.7c2.5-6.3,3.8-29.4,4.4-50.3
		c0.9-20.9-1.3-47.5-2.5-57.3C245.7,258.6,244.1,252.3,240.6,246.9z M98.2,409.3c-5.7,0-14.6-0.9-14.2-0.9l14.2-41.1l13.3,41.5
		C111.5,408.7,103.6,409.3,98.2,409.3z M169.7,408.7c0,0-8.9,0.9-14.2,0.9c-5.1,0-13.3-0.9-13.3-0.9l13-41.5L169.7,408.7z
		 M133,376.4v-15.8h12.3l-18.7,51.6l-18.4-51.6h12.3V372c0,0,0,0.9,0.3,1.3c1.6,0.9,1.9,0.9,1.9,0.9L133,376.4z M134.6,292.5h-21.5
		c-1.6-5.1,0-6.3,4.4-6.6C126.4,284.9,134,284.9,134.6,292.5z M194.7,269.7c7.9-1.3,4.1,12.7,2.2,18c-2.8-6.6-5.1-10.4-9.8-16.8
		C190,270.3,191.9,270.3,194.7,269.7z"/>
	<path class="st0" d="M56.1,384.3c3.8-3.8,17.1-17.4,19-24.7c2.5-8.9,4.4-29.8,4.4-34.5c0,0-13,8.9-19.9,15.8c-2.8,3.2-7,8.5-7,8.5
		c-1.3-7.6,0.3-15.8,3.8-20.9c4.4-7,20.6-20.6,22.5-26.3c3.5-8.9,2.8-16.8,5.7-26.6c-10.8,3.5-24.1,11.7-30.1,18.4
		c-0.9-10.4,2.5-18,9.5-23.4c10.1-7.6,23.4-12,32.3-14.6c7.6-2.2,19.3-4.7,25.6-7.6c11.1-5.4,21.8-20.6,24.4-28.5
		c-3.8,0-16.8-0.9-29.8,4.1c-4.7,1.9-7,6-9.2,9.5c-2.2,3.8-4.4,6.6-6.3,9.2c-5.4,7.9-11.7,11.7-19.9,13.9c0.3-0.6,5.4-3.8,9.2-11.7
		c3.2-6.6,7-19.9,7-20.9c-7,0.9-11.4,2.8-18.7,5.7c-7.9,3.2-10.1,6.3-11.7,9.2c-5.1,7.9-3.8,30.1-13.9,38.9
		c0.3-11.7,2.8-24.4-1.3-38.9c-21.5,8.2-25.3,15.8-23.7,25c1.9,12,15.5,17.7,21.5,27.5c1.6,2.8,2.5,7,2.5,7.6c0.3,0-4.1,6-2.8,17.4
		c0,0-4.4-8.2-8.2-13.6c-6.3-8.2-18.7-20.9-18.7-20.9c-2.5,32.6,1.6,39.3,3.2,42.1c4.1,7,19.6,17.7,22.8,24.4
		c1.6,3.5,1.9,4.7,1.9,4.7c0.6,1.3-3.2,5.4-2.5,11.1c0.3,1.9,0.6,4.4,1.3,7.6c0,0-4.4-6.6-10.8-13.9c-5.7-6.6-16.8-14.2-16.8-14.2
		c-0.6,3.8,1.3,21.8,1.6,24.7c1.6,9.2,1.9,17.7,9.5,25.6c6.6,6.6,28.2,15.5,32.6,17.1c0,0-0.9-4.1-2.8-10.1
		C60.2,394.4,56.1,384.3,56.1,384.3z"/>
	<path class="st0" d="M258.3,240.3h6c4.1,0,7.9,0.9,11.7,3.2c2.5,1.6,4.4,3.2,5.1,5.4c0.9,2.8,1.6,8.5,1.6,17.1v110.2
		c0,10.1-0.9,16.8-3.2,19.3c-3.2,4.1-8.2,6-15.2,6h-6v4.7h73.1v-4.7h-6c-4.1,0-7.9-0.9-11.4-3.2c-2.5-1.6-4.4-3.2-5.4-5.4
		c-0.9-2.8-1.6-8.5-1.6-17.1V265.9c0-10.1,0.9-16.8,3.2-19.3c3.2-4.1,8.2-6,15.2-6h6v-4.7h-73.1V240.3z"/>
	<path class="st0" d="M616.7,343.1c-3.2-6.3-7.6-11.7-13.6-16.1c-5.7-4.4-16.8-11.1-32.6-19.6c-19.6-10.4-32-19-37-25
		c-3.5-4.4-5.4-8.9-5.4-14.2c0-6.6,2.8-13,8.5-18c5.7-5.4,13-7.9,21.5-7.9c7.6,0,15.2,1.9,22.5,6c7.3,3.8,12.7,9.2,16.8,15.8
		c3.8,6.6,6.6,15.8,8.2,26.9h4.7v-59.2h-4.7c-0.9,3.8-1.9,6.6-3.5,7.9c-1.3,1.3-3.2,1.9-5.4,1.9c-1.9,0-5.4-0.9-9.8-3.2
		c-10.1-4.4-19.6-6.6-28.8-6.6c-14.6,0-26.6,4.4-35.8,13.3c-9.5,8.9-14.2,19.3-14.2,31.7c0,7,1.6,13.6,4.7,19.3
		c3.2,6,7.9,11.4,13.9,16.1c6.3,4.7,16.5,11.4,31,19.6s23.4,13.6,26.9,16.1c4.7,3.8,8.5,7.6,10.8,12c2.2,4.4,3.5,8.5,3.5,12.7
		c0,7.6-3.2,13.9-9.2,19.6c-6,5.4-14.2,8.2-24.7,8.2c-9.2,0-17.4-1.9-25-6c-7.6-4.1-13.3-9.2-16.8-15.2c-3.8-6-6.6-15.2-8.9-27.5
		h-4.7v49.7c-7-1.6-11.4-3.5-16.1-6.6c-5.7-3.8-12.7-11.1-20.9-22.5l-35.1-49.1c14.2-3.2,25-8.5,31.7-16.5
		c7-7.6,10.1-16.8,10.1-27.2c0-9.8-2.8-18.4-8.9-25.3c-6-7-13.3-12-21.8-14.6s-21.8-4.1-40.2-4.1h-62v4.7h6.3
		c6.3,0,11.4,1.9,14.6,5.4c2.2,2.5,3.5,9.2,3.5,19.9v110.2c0,9.8-0.9,15.8-2.5,18.4c-3.2,4.7-8.2,7-15.5,7h-6.3v4.7h73.1v-4.7h-6.6
		c-6.3,0-11.1-1.9-14.2-5.4c-2.2-2.5-3.5-9.2-3.5-19.9v-49.4c1.3,0,2.5,0,3.8,0.3c1.3,0,2.5,0,3.5,0c2.5,0,6,0,10.4-0.3l57.6,79.8
		h39.3l0,0h5.4c0.6-1.9,1.3-3.2,1.9-3.8c1.3-1.3,2.8-1.9,5.1-1.9s7.3,1.3,15.5,4.1c8.2,2.5,13.6,4.1,16.1,4.7
		c4.4,0.6,8.9,1.3,13.9,1.3c15.8,0,28.8-4.7,38.6-13.9c10.1-9.5,14.9-20.6,14.9-33.2C621.4,355.8,619.8,349.5,616.7,343.1z
		 M402.1,318.8c-0.6,0-1.6,0-2.8,0c-1.3,0-2.5,0-4.1,0v-71.2c8.2-1.6,14.9-2.5,19.6-2.5c11.1,0,19.9,3.5,26.6,10.1
		c6.6,6.6,10.1,15.2,10.1,26s-4.1,19.9-12.3,26.9C430.5,315.3,418.5,318.8,402.1,318.8z"/>
</g>
</svg>
